<svg width="16" height="15" viewBox="0 0 16 15" fill="none" xmlns="http://www.w3.org/2000/svg">
<path d="M14.7549 5.5H4.25488V3.25C4.25488 2.42275 4.92763 1.75 5.75488 1.75C6.58213 1.75 7.25488 2.42275 7.25488 3.25H8.75488C8.75488 1.5955 7.40938 0.25 5.75488 0.25C4.10038 0.25 2.75488 1.5955 2.75488 3.25V5.5H1.25488C1.05597 5.5 0.865205 5.57902 0.724553 5.71967C0.5839 5.86032 0.504883 6.05109 0.504883 6.25V7.75C0.504883 9.7045 1.76038 11.3672 3.50488 11.9875V14.5H5.00488V12.25H11.0049V14.5H12.5049V11.9875C14.2494 11.3672 15.5049 9.7045 15.5049 7.75V6.25C15.5049 6.05109 15.4259 5.86032 15.2852 5.71967C15.1446 5.57902 14.9538 5.5 14.7549 5.5ZM14.0049 7.75C14.0049 9.4045 12.6594 10.75 11.0049 10.75H5.00488C3.35038 10.75 2.00488 9.4045 2.00488 7.75V7H14.0049V7.75Z" fill="#1A202C"/>
</svg>
