<svg width="40" height="40" viewBox="0 0 40 40" fill="none" xmlns="http://www.w3.org/2000/svg">
<path d="M34.9997 16.6667H11.6663V11.6667C11.6663 9.82833 13.1613 8.33333 14.9997 8.33333C16.838 8.33333 18.333 9.82833 18.333 11.6667H21.6663C21.6663 7.99 18.6763 5 14.9997 5C11.323 5 8.33301 7.99 8.33301 11.6667V16.6667H4.99967C4.55765 16.6667 4.13372 16.8423 3.82116 17.1548C3.5086 17.4674 3.33301 17.8913 3.33301 18.3333V21.6667C3.33301 26.01 6.12301 29.705 9.99967 31.0833V36.6667H13.333V31.6667H26.6663V36.6667H29.9997V31.0833C33.8763 29.705 36.6663 26.01 36.6663 21.6667V18.3333C36.6663 17.8913 36.4907 17.4674 36.1782 17.1548C35.8656 16.8423 35.4417 16.6667 34.9997 16.6667ZM33.333 21.6667C33.333 25.3433 30.343 28.3333 26.6663 28.3333H13.333C9.65634 28.3333 6.66634 25.3433 6.66634 21.6667V20H33.333V21.6667Z" fill="#805AD5"/>
</svg>
