<svg width="40" height="40" viewBox="0 0 40 40" fill="none" xmlns="http://www.w3.org/2000/svg">
<path d="M30 18.7485H7.5V10.6235C7.50247 9.79549 7.83251 9.00207 8.41802 8.41656C9.00354 7.83104 9.79696 7.50101 10.625 7.49854H29.375C30.203 7.50101 30.9964 7.83104 31.582 8.41656C32.1675 9.00207 32.4975 9.79549 32.5 10.6235V18.7485H30Z" stroke="#805AD5" stroke-width="1.5" stroke-linecap="round" stroke-linejoin="round"/>
<path d="M3.75 32.4985V23.7485C3.75392 22.4237 4.28196 21.1542 5.21879 20.2173C6.15563 19.2805 7.42512 18.7525 8.75 18.7485H31.25C32.5749 18.7525 33.8444 19.2805 34.7812 20.2173C35.718 21.1542 36.2461 22.4237 36.25 23.7485V32.4985" stroke="#805AD5" stroke-width="1.5" stroke-linecap="round" stroke-linejoin="round"/>
<path d="M20 18.7493V17.4993C20.0019 16.8368 20.2658 16.202 20.7343 15.7336C21.2027 15.2651 21.8375 15.0011 22.5 14.9993H28.75C29.4125 15.0011 30.0473 15.2651 30.5157 15.7336C30.9842 16.202 31.2481 16.8368 31.25 17.4993V18.7493" stroke="#805AD5" stroke-width="1.5" stroke-linecap="round" stroke-linejoin="round"/>
</svg>
