<svg width="20" height="20" viewBox="0 0 20 20" fill="none" xmlns="http://www.w3.org/2000/svg">
<path d="M10 0.280029C4.6239 0.280029 0.25 4.65393 0.25 10.03C0.25 15.4061 4.6239 19.78 10 19.78C15.3761 19.78 19.75 15.4061 19.75 10.03C19.75 4.65393 15.3761 0.280029 10 0.280029ZM13.5302 12.4999C13.6027 12.5688 13.6608 12.6516 13.7008 12.7433C13.7409 12.8351 13.7622 12.9339 13.7635 13.034C13.7648 13.1341 13.746 13.2334 13.7083 13.3262C13.6706 13.4189 13.6147 13.5031 13.5439 13.5739C13.4731 13.6447 13.3889 13.7006 13.2961 13.7383C13.2034 13.7761 13.1041 13.7948 13.004 13.7935C12.9039 13.7923 12.805 13.771 12.7133 13.7309C12.6216 13.6908 12.5388 13.6328 12.4698 13.5602L10 11.0908L7.53015 13.5602C7.38836 13.6949 7.19954 13.7689 7.00397 13.7664C6.8084 13.7639 6.62155 13.6851 6.48325 13.5468C6.34494 13.4085 6.26614 13.2216 6.26364 13.026C6.26113 12.8305 6.33513 12.6417 6.46984 12.4999L8.93921 10.03L6.46984 7.56018C6.33513 7.41839 6.26113 7.22957 6.26364 7.034C6.26614 6.83843 6.34494 6.65158 6.48325 6.51327C6.62155 6.37497 6.8084 6.29617 7.00397 6.29367C7.19954 6.29116 7.38836 6.36516 7.53015 6.49987L10 8.96924L12.4698 6.49987C12.6116 6.36516 12.8004 6.29116 12.996 6.29367C13.1916 6.29617 13.3784 6.37497 13.5167 6.51327C13.655 6.65158 13.7339 6.83843 13.7364 7.034C13.7389 7.22957 13.6649 7.41839 13.5302 7.56018L11.0608 10.03L13.5302 12.4999Z" fill="white"/>
</svg>
