<svg width="457" height="425" viewBox="0 0 457 425" fill="none" xmlns="http://www.w3.org/2000/svg">
<path d="M451.73 134.234C447.531 131.68 445.611 133.813 444.087 131.68C442.563 129.547 448.287 124.131 436.828 118.678C436.828 118.678 436.06 106.94 420.402 106.518C404.743 106.097 408.943 118.256 404.743 121.194C400.544 124.131 399.392 119.521 395.192 122.471C390.993 125.421 392.866 131.271 389.469 132.114C386.328 132.88 382.244 129.125 378.359 130.684C377.063 125.936 375.267 121.371 373.008 117.081C358.826 90.3488 327.905 78.0236 303.696 70.5007C226.648 46.5783 208.011 105.318 160.257 137.67C112.502 170.022 56.3706 140.224 29.1019 163.457C1.83333 186.69 -7.26396 244.408 6.04461 271.025C19.3532 297.642 48.7856 306.315 53.3343 319.074C57.8829 331.834 56.4636 336.01 56.4636 336.01H413.608C416.4 336.01 423.776 319.598 425.241 316.405C433.478 298.255 434.478 280.247 420.018 266.299C406.058 252.837 381.919 244.369 380.22 219.348C378.522 194.328 384.362 165.884 380.418 140.505H454.755C454.755 140.505 455.93 136.75 451.73 134.234ZM157.813 279.723H61.1751C61.1751 279.723 63.8508 277.628 66.1426 275.891C68.4344 274.154 72.2501 275.891 74.158 275.891C76.0658 275.891 76.0658 273.337 80.2771 270.45C84.4884 267.564 89.0603 272.123 92.4922 271.28C95.924 270.437 94.0278 264.575 98.2274 261.637C102.427 258.7 103.579 263.311 107.778 260.36C111.978 257.41 107.778 245.251 123.437 245.672C139.095 246.094 139.863 257.844 139.863 257.844C151.322 263.285 145.587 268.739 147.122 270.833C148.658 272.928 150.554 270.833 154.766 273.388C158.977 275.942 157.813 279.723 157.813 279.723ZM314.55 92.9543H252.532C252.532 92.9543 254.242 91.6771 255.72 90.5404C257.197 89.4036 259.64 90.5404 260.862 90.5404C262.083 90.5404 262.095 88.9183 264.782 87.0408C267.47 85.1633 270.424 88.1136 272.635 87.5772C274.845 87.0408 273.612 83.273 276.311 81.3827C279.01 79.4924 279.743 82.4555 282.442 80.578C285.141 78.7005 282.442 70.8839 292.493 71.1521C302.544 71.4203 303.033 78.9559 303.033 78.9559C310.385 82.4555 306.709 85.9551 307.686 87.309C308.663 88.6628 309.897 87.309 312.595 88.9183C315.294 90.5276 314.55 92.9543 314.55 92.9543Z" fill="#81E6D9"/>
<path d="M200.45 27.7264C196.239 25.1719 194.331 27.3049 192.807 25.1719C191.283 23.039 197.006 17.6236 185.547 12.1698C185.547 12.1698 184.78 0.432178 169.121 0.0106953C153.463 -0.410787 157.662 11.7484 153.463 14.686C149.263 17.6236 148.111 13.0128 143.912 15.9632C139.712 18.9136 141.585 24.7632 138.176 25.6062C134.768 26.4492 130.161 21.7745 125.961 24.7632C121.762 27.7519 121.75 30.217 119.842 30.217C117.934 30.217 114.119 28.5438 111.827 30.217C109.535 31.8901 106.859 34.0486 106.859 34.0486H203.498C203.498 34.0486 204.649 30.2808 200.45 27.7264Z" fill="#81E6D9"/>
<g opacity="0.7">
<path opacity="0.7" d="M451.73 134.234C447.531 131.68 445.611 133.813 444.087 131.68C442.563 129.547 448.287 124.131 436.828 118.678C436.828 118.678 436.06 106.94 420.402 106.518C404.743 106.097 408.943 118.256 404.743 121.194C400.544 124.131 399.392 119.521 395.192 122.471C390.993 125.421 392.866 131.271 389.469 132.114C386.328 132.88 382.244 129.125 378.359 130.684C377.063 125.936 375.267 121.371 373.008 117.081C358.826 90.3488 327.905 78.0236 303.696 70.5007C226.648 46.5783 208.011 105.318 160.257 137.67C112.502 170.022 56.3706 140.224 29.1019 163.457C1.83333 186.69 -7.26396 244.408 6.04461 271.025C19.3532 297.642 48.7856 306.315 53.3343 319.074C57.8829 331.834 56.4636 336.01 56.4636 336.01H413.608C416.4 336.01 423.776 319.598 425.241 316.405C433.478 298.255 434.478 280.247 420.018 266.299C406.058 252.837 381.919 244.369 380.22 219.348C378.522 194.328 384.362 165.884 380.418 140.505H454.755C454.755 140.505 455.93 136.75 451.73 134.234ZM157.813 279.723H61.1751C61.1751 279.723 63.8508 277.628 66.1426 275.891C68.4344 274.154 72.2501 275.891 74.158 275.891C76.0658 275.891 76.0658 273.337 80.2771 270.45C84.4884 267.564 89.0603 272.123 92.4922 271.28C95.924 270.437 94.0278 264.575 98.2274 261.637C102.427 258.7 103.579 263.311 107.778 260.36C111.978 257.41 107.778 245.251 123.437 245.672C139.095 246.094 139.863 257.844 139.863 257.844C151.322 263.285 145.587 268.739 147.122 270.833C148.658 272.928 150.554 270.833 154.766 273.388C158.977 275.942 157.813 279.723 157.813 279.723ZM314.55 92.9543H252.532C252.532 92.9543 254.242 91.6771 255.72 90.5404C257.197 89.4036 259.64 90.5404 260.862 90.5404C262.083 90.5404 262.095 88.9183 264.782 87.0408C267.47 85.1633 270.424 88.1136 272.635 87.5772C274.845 87.0408 273.612 83.273 276.311 81.3827C279.01 79.4924 279.743 82.4555 282.442 80.578C285.141 78.7005 282.442 70.8839 292.493 71.1521C302.544 71.4203 303.033 78.9559 303.033 78.9559C310.385 82.4555 306.709 85.9551 307.686 87.309C308.663 88.6628 309.897 87.309 312.595 88.9183C315.294 90.5276 314.55 92.9543 314.55 92.9543Z" fill="white"/>
<path opacity="0.7" d="M200.45 27.7264C196.239 25.1719 194.331 27.3049 192.807 25.1719C191.283 23.039 197.006 17.6236 185.547 12.1698C185.547 12.1698 184.78 0.432178 169.121 0.0106953C153.463 -0.410787 157.662 11.7484 153.463 14.686C149.263 17.6236 148.111 13.0128 143.912 15.9632C139.712 18.9136 141.585 24.7632 138.176 25.6062C134.768 26.4492 130.161 21.7745 125.961 24.7632C121.762 27.7519 121.75 30.217 119.842 30.217C117.934 30.217 114.119 28.5438 111.827 30.217C109.535 31.8901 106.859 34.0486 106.859 34.0486H203.498C203.498 34.0486 204.649 30.2808 200.45 27.7264Z" fill="white"/>
</g>
<path d="M444.646 253.565L456 286.965H448.264L440.527 260.922L444.646 253.565Z" fill="white" stroke="#2E353A" stroke-width="0.887535" stroke-linecap="round" stroke-linejoin="round"/>
<path d="M450.834 336.035H348.565V278.662L443.517 262.735L450.834 284.882V336.035Z" fill="#2E353A"/>
<path d="M362.654 162.41H229.266V336.036H362.654V162.41Z" fill="#2E353A"/>
<path d="M221.052 176.446L215.375 168.374L296.704 99.4424L376.544 167.123L370.878 175.195L296.704 112.317L221.052 176.446Z" fill="#2E353A"/>
<path d="M338.247 162.41H204.858V336.036H338.247V162.41Z" fill="white" stroke="#2E353A" stroke-width="0.887535" stroke-linecap="round" stroke-linejoin="round"/>
<path d="M271.552 105.88L204.858 162.41H338.247L271.552 105.88Z" fill="white" stroke="#2E353A" stroke-width="0.887535" stroke-linejoin="round"/>
<g style="mix-blend-mode:multiply">
<path d="M271.552 105.88L204.858 162.41V175.284L220.052 162.41L271.552 118.754L323.065 162.41L338.247 175.284V162.41L271.552 105.88Z" fill="#81E6D9"/>
</g>
<path d="M440.527 278.663H338.247V336.036H440.527V278.663Z" fill="white" stroke="#2E353A" stroke-width="0.887535" stroke-linecap="round" stroke-linejoin="round"/>
<path d="M430.22 278.663H348.565V336.036H430.22V278.663Z" fill="#81E6D9" stroke="#2E353A" stroke-width="0.887535" stroke-linecap="round" stroke-linejoin="round"/>
<g style="mix-blend-mode:multiply">
<path d="M440.527 278.663H338.247V290.963H440.527V278.663Z" fill="#81E6D9"/>
</g>
<path d="M348.565 295.458H430.208" stroke="#2E353A" stroke-width="0.887535" stroke-linecap="round" stroke-linejoin="round"/>
<path d="M348.565 303.952H430.208" stroke="#2E353A" stroke-width="0.887535" stroke-linecap="round" stroke-linejoin="round"/>
<path d="M348.565 312.445H430.208" stroke="#2E353A" stroke-width="0.887535" stroke-linecap="round" stroke-linejoin="round"/>
<path d="M348.565 320.939H430.208" stroke="#2E353A" stroke-width="0.887535" stroke-linecap="round" stroke-linejoin="round"/>
<path d="M348.565 329.432H430.208" stroke="#2E353A" stroke-width="0.887535" stroke-linecap="round" stroke-linejoin="round"/>
<path d="M242.678 271.868H215.863V336.036H242.678V271.868Z" fill="#2E353A"/>
<path d="M283.581 271.868H256.767V316.404H283.581V271.868Z" fill="white" stroke="#2E353A" stroke-width="0.887535" stroke-linecap="round" stroke-linejoin="round"/>
<path d="M283.581 292.252H256.767V296.033H283.581V292.252Z" fill="#2E353A"/>
<path d="M271.902 271.868H268.458V316.404H271.902V271.868Z" fill="#2E353A"/>
<path d="M332.744 271.868H305.929V316.404H332.744V271.868Z" fill="white" stroke="#2E353A" stroke-width="0.887535" stroke-linecap="round" stroke-linejoin="round"/>
<path d="M332.744 292.252H305.929V296.033H332.744V292.252Z" fill="#2E353A"/>
<path d="M321.064 271.868H317.621V316.404H321.064V271.868Z" fill="#2E353A"/>
<path d="M298.193 271.868H293.051V336.036H298.193V271.868Z" fill="white" stroke="#2E353A" stroke-width="0.887535" stroke-linecap="round" stroke-linejoin="round"/>
<path d="M253.242 271.868H248.1V336.036H253.242V271.868Z" fill="white" stroke="#2E353A" stroke-width="0.887535" stroke-linecap="round" stroke-linejoin="round"/>
<path d="M332.744 274.512H211.048V282.814H332.744V274.512Z" fill="#2E353A"/>
<path d="M332.744 270.361H211.048V278.663H332.744V270.361Z" fill="#81E6D9" stroke="#2E353A" stroke-width="0.887535" stroke-linecap="round" stroke-linejoin="round"/>
<path d="M195.901 176.447L190.224 168.375L271.553 99.4426L351.392 167.123L345.727 175.195L271.553 112.317L195.901 176.447Z" fill="white" stroke="#2E353A" stroke-width="0.887535" stroke-linejoin="round"/>
<path d="M440.527 286.965H328.079L338.398 253.565H444.645L440.527 286.965Z" fill="#2E353A"/>
<path d="M351.393 167.122H374.427L296.704 99.4424H271.553L351.393 167.122Z" fill="#2E353A"/>
<path d="M345.727 175.195H370.878L376.543 167.123H351.392L345.727 175.195Z" fill="#2E353A"/>
<path d="M230.3 188.082H215.863V213.754H230.3V188.082Z" fill="white" stroke="#2E353A" stroke-width="0.887535" stroke-linecap="round" stroke-linejoin="round"/>
<path d="M230.3 200.918H215.863V213.754H230.3V200.918Z" fill="#2E353A"/>
<path d="M230.3 199.488H215.863V202.349H230.3V199.488Z" fill="white" stroke="#2E353A" stroke-width="0.887535" stroke-linecap="round" stroke-linejoin="round"/>
<path d="M230.3 225.071H215.863V250.743H230.3V225.071Z" fill="white" stroke="#2E353A" stroke-width="0.887535" stroke-linecap="round" stroke-linejoin="round"/>
<path d="M230.3 237.779H215.863V250.73H230.3V237.779Z" fill="#2E353A"/>
<path d="M327.928 188.082H313.491V213.754H327.928V188.082Z" fill="white" stroke="#2E353A" stroke-width="0.887535" stroke-linecap="round" stroke-linejoin="round"/>
<path d="M327.928 200.918H313.491V213.754H327.928V200.918Z" fill="#2E353A"/>
<path d="M327.928 225.071H313.491V250.743H327.928V225.071Z" fill="white" stroke="#2E353A" stroke-width="0.887535" stroke-linecap="round" stroke-linejoin="round"/>
<path d="M327.928 236.348H313.491V250.73H327.928V236.348Z" fill="#2E353A"/>
<path d="M277.392 188.082H262.955V213.754H277.392V188.082Z" fill="white" stroke="#2E353A" stroke-width="0.887535" stroke-linecap="round" stroke-linejoin="round"/>
<path d="M277.392 200.918H262.955V213.754H277.392V200.918Z" fill="#2E353A"/>
<path d="M277.392 225.071H262.955V250.743H277.392V225.071Z" fill="white" stroke="#2E353A" stroke-width="0.887535" stroke-linecap="round" stroke-linejoin="round"/>
<path d="M277.392 236.348H262.955V250.73H277.392V236.348Z" fill="#2E353A"/>
<path d="M277.392 199.488H262.955V202.349H277.392V199.488Z" fill="white" stroke="#2E353A" stroke-width="0.887535" stroke-linecap="round" stroke-linejoin="round"/>
<path d="M327.928 199.488H313.491V202.349H327.928V199.488Z" fill="white" stroke="#2E353A" stroke-width="0.887535" stroke-linecap="round" stroke-linejoin="round"/>
<path d="M230.3 234.918H215.863V237.779H230.3V234.918Z" fill="white" stroke="#2E353A" stroke-width="0.887535" stroke-linecap="round" stroke-linejoin="round"/>
<path d="M277.392 234.918H262.955V237.779H277.392V234.918Z" fill="white" stroke="#2E353A" stroke-width="0.887535" stroke-linecap="round" stroke-linejoin="round"/>
<path d="M327.928 234.918H313.491V237.779H327.928V234.918Z" fill="white" stroke="#2E353A" stroke-width="0.887535" stroke-linecap="round" stroke-linejoin="round"/>
<path d="M216.62 170.15V176.447" stroke="#2E353A" stroke-width="0.887535" stroke-linecap="round" stroke-linejoin="round"/>
<path d="M226.938 170.15V176.447" stroke="#2E353A" stroke-width="0.887535" stroke-linecap="round" stroke-linejoin="round"/>
<path d="M221.052 176.447V182.743" stroke="#2E353A" stroke-width="0.887535" stroke-linecap="round" stroke-linejoin="round"/>
<path d="M232.837 176.447V182.743" stroke="#2E353A" stroke-width="0.887535" stroke-linecap="round" stroke-linejoin="round"/>
<path d="M212.048 176.447H235.617" stroke="#2E353A" stroke-width="0.887535" stroke-linecap="round" stroke-linejoin="round"/>
<path d="M216.62 254.255V260.552" stroke="#2E353A" stroke-width="0.887535" stroke-linecap="round" stroke-linejoin="round"/>
<path d="M226.938 254.255V260.552" stroke="#2E353A" stroke-width="0.887535" stroke-linecap="round" stroke-linejoin="round"/>
<path d="M221.052 260.552V266.849" stroke="#2E353A" stroke-width="0.887535" stroke-linecap="round" stroke-linejoin="round"/>
<path d="M232.837 260.552V266.849" stroke="#2E353A" stroke-width="0.887535" stroke-linecap="round" stroke-linejoin="round"/>
<path d="M212.048 260.552H235.617" stroke="#2E353A" stroke-width="0.887535" stroke-linecap="round" stroke-linejoin="round"/>
<path d="M237.525 194.609V200.918" stroke="#2E353A" stroke-width="0.887535" stroke-linecap="round" stroke-linejoin="round"/>
<path d="M247.844 194.609V200.918" stroke="#2E353A" stroke-width="0.887535" stroke-linecap="round" stroke-linejoin="round"/>
<path d="M241.957 200.918V207.215" stroke="#2E353A" stroke-width="0.887535" stroke-linecap="round" stroke-linejoin="round"/>
<path d="M253.742 200.918V207.215" stroke="#2E353A" stroke-width="0.887535" stroke-linecap="round" stroke-linejoin="round"/>
<path d="M232.953 200.918H256.522" stroke="#2E353A" stroke-width="0.887535" stroke-linecap="round" stroke-linejoin="round"/>
<path d="M237.525 207.215H256.523" stroke="#2E353A" stroke-width="0.887535" stroke-linecap="round" stroke-linejoin="round"/>
<path d="M237.525 207.445V213.742" stroke="#2E353A" stroke-width="0.887535" stroke-linecap="round" stroke-linejoin="round"/>
<path d="M247.844 207.445V213.742" stroke="#2E353A" stroke-width="0.887535" stroke-linecap="round" stroke-linejoin="round"/>
<path d="M241.957 213.742V220.038" stroke="#2E353A" stroke-width="0.887535" stroke-linecap="round" stroke-linejoin="round"/>
<path d="M253.742 213.742V220.038" stroke="#2E353A" stroke-width="0.887535" stroke-linecap="round" stroke-linejoin="round"/>
<path d="M232.953 213.742H256.522" stroke="#2E353A" stroke-width="0.887535" stroke-linecap="round" stroke-linejoin="round"/>
<path d="M288.921 236.629V242.926" stroke="#2E353A" stroke-width="0.887535" stroke-linecap="round" stroke-linejoin="round"/>
<path d="M299.24 236.629V242.926" stroke="#2E353A" stroke-width="0.887535" stroke-linecap="round" stroke-linejoin="round"/>
<path d="M293.354 242.926V249.223" stroke="#2E353A" stroke-width="0.887535" stroke-linecap="round" stroke-linejoin="round"/>
<path d="M305.138 242.926V249.223" stroke="#2E353A" stroke-width="0.887535" stroke-linecap="round" stroke-linejoin="round"/>
<path d="M284.349 242.926H307.918" stroke="#2E353A" stroke-width="0.887535" stroke-linecap="round" stroke-linejoin="round"/>
<path d="M288.921 249.223H307.919" stroke="#2E353A" stroke-width="0.887535" stroke-linecap="round" stroke-linejoin="round"/>
<path d="M288.921 249.465V255.762" stroke="#2E353A" stroke-width="0.887535" stroke-linecap="round" stroke-linejoin="round"/>
<path d="M299.24 249.465V255.762" stroke="#2E353A" stroke-width="0.887535" stroke-linecap="round" stroke-linejoin="round"/>
<path d="M293.354 255.762V262.059" stroke="#2E353A" stroke-width="0.887535" stroke-linecap="round" stroke-linejoin="round"/>
<path d="M305.138 255.762V262.059" stroke="#2E353A" stroke-width="0.887535" stroke-linecap="round" stroke-linejoin="round"/>
<path d="M284.349 255.762H307.918" stroke="#2E353A" stroke-width="0.887535" stroke-linecap="round" stroke-linejoin="round"/>
<path d="M12.1871 353.827C35.0583 364.211 93.8301 352.971 87.804 365.08C81.7779 377.188 35.7447 372.641 22.6572 385.732C9.56962 398.824 69.1092 397.776 67.0036 401.749C64.8979 405.721 12.5129 408.441 15.9563 413.793H368.936C369.506 409.604 365.446 404.52 358.815 401.021C306.255 398.658 128.149 389.998 146.808 381.632C168.679 371.849 240.085 362.065 253.137 354.402C266.19 346.739 208.372 345.883 198.693 342.485C195.576 341.387 195.203 340.314 196.215 339.382L197.879 339.497V338.334C200.522 337.283 203.248 336.501 206.022 335.997H197.879V333.788L196.716 334.592L194.726 335.997H194.086C194.902 333.231 195.455 330.381 195.738 327.491C196.192 322.497 189.805 333.788 189.805 333.788C189.805 333.788 190.713 329.956 189.805 327.491C188.898 325.026 186.152 330.824 186.152 330.824C186.152 330.824 189.352 316.967 186.152 307.962C182.953 298.958 179.347 330.824 179.347 330.824C179.347 330.824 178.858 318.461 174.752 318.218C171.425 318.014 173.484 326.418 174.391 329.611C173.687 327.819 172.649 326.209 171.343 324.885C168.4 321.794 171.343 332.025 171.343 332.025C171.343 332.025 170.18 328.985 162.49 327.491C154.801 325.997 165.631 334.107 165.631 334.107C162.298 333.057 158.915 332.204 155.499 331.552C153.8 331.246 153.661 331.706 154.219 332.472L153.114 333.251L149.554 335.806C150.72 332.056 151.5 328.174 151.881 324.234C152.462 317.848 144.331 332.255 144.331 332.255C144.331 332.255 145.494 327.414 144.331 324.234C143.167 321.054 139.677 328.474 139.677 328.474C139.677 328.474 143.749 310.836 139.677 299.366C135.606 287.897 131.01 328.474 131.01 328.474C131.01 328.474 130.382 312.752 125.194 312.432C120.971 312.177 123.565 322.791 124.728 326.891C123.833 324.629 122.518 322.597 120.866 320.926C117.108 316.992 120.866 330.007 120.866 330.007C120.866 330.007 119.389 326.175 109.593 324.234C99.798 322.293 113.584 332.664 113.584 332.664C109.34 331.327 105.033 330.244 100.682 329.419C94.1675 328.244 105.638 336.023 105.638 336.023H19.1671C19.1671 336.023 -10.6608 343.456 12.1871 353.827ZM154.603 332.983C155.77 334.118 157.019 335.147 158.337 336.061H154.603V332.983Z" fill="#81E6D9"/>
<path d="M294.378 355.373C281.163 362.091 248.345 369.141 248.345 369.141C243.121 369.92 250.194 377.264 286.467 373.624L348.543 336.036H229.592C233.57 338.284 261.909 343.469 278.033 343.469C294.157 343.469 307.594 348.642 294.378 355.373Z" fill="#81E6D9"/>
<path d="M389.411 336.035H412.864C401.091 335.538 389.411 336.035 389.411 336.035Z" fill="#81E6D9"/>
<path d="M428.103 337.53L372.391 376.945C379.453 376.651 386.84 376.46 393.994 376.268C424.858 375.451 413.655 360.75 415.749 355.564C417.843 350.379 435.362 351.235 436.758 342.588C437.154 340.136 433.513 338.552 428.103 337.53Z" fill="#81E6D9"/>
<g opacity="0.3">
<path opacity="0.3" d="M12.1871 353.827C35.0583 364.211 93.8301 352.971 87.804 365.08C81.7779 377.188 35.7447 372.641 22.6572 385.732C9.56962 398.824 69.1092 397.776 67.0036 401.749C64.8979 405.721 12.5129 408.441 15.9563 413.793H368.936C369.506 409.604 365.446 404.52 358.815 401.021C306.255 398.658 128.149 389.998 146.808 381.632C168.679 371.849 240.085 362.065 253.137 354.402C266.19 346.739 208.372 345.883 198.693 342.485C195.576 341.387 195.203 340.314 196.215 339.382L197.879 339.497V338.334C200.522 337.283 203.248 336.501 206.022 335.997H197.879V333.788L196.716 334.592L194.726 335.997H194.086C194.902 333.231 195.455 330.381 195.738 327.491C196.192 322.497 189.805 333.788 189.805 333.788C189.805 333.788 190.713 329.956 189.805 327.491C188.898 325.026 186.152 330.824 186.152 330.824C186.152 330.824 189.352 316.967 186.152 307.962C182.953 298.958 179.347 330.824 179.347 330.824C179.347 330.824 178.858 318.461 174.752 318.218C171.425 318.014 173.484 326.418 174.391 329.611C173.687 327.819 172.649 326.209 171.343 324.885C168.4 321.794 171.343 332.025 171.343 332.025C171.343 332.025 170.18 328.985 162.49 327.491C154.801 325.997 165.631 334.107 165.631 334.107C162.298 333.057 158.915 332.204 155.499 331.552C153.8 331.246 153.661 331.706 154.219 332.472L153.114 333.251L149.554 335.806C150.72 332.056 151.5 328.174 151.881 324.234C152.462 317.848 144.331 332.255 144.331 332.255C144.331 332.255 145.494 327.414 144.331 324.234C143.167 321.054 139.677 328.474 139.677 328.474C139.677 328.474 143.749 310.836 139.677 299.366C135.606 287.897 131.01 328.474 131.01 328.474C131.01 328.474 130.382 312.752 125.194 312.432C120.971 312.177 123.565 322.791 124.728 326.891C123.833 324.629 122.518 322.597 120.866 320.926C117.108 316.992 120.866 330.007 120.866 330.007C120.866 330.007 119.389 326.175 109.593 324.234C99.798 322.293 113.584 332.664 113.584 332.664C109.34 331.327 105.033 330.244 100.682 329.419C94.1675 328.244 105.638 336.023 105.638 336.023H19.1671C19.1671 336.023 -10.6608 343.456 12.1871 353.827ZM154.603 332.983C155.77 334.118 157.019 335.147 158.337 336.061H154.603V332.983Z" fill="white"/>
<path opacity="0.3" d="M294.378 355.373C281.163 362.091 248.345 369.141 248.345 369.141C243.121 369.92 250.194 377.264 286.467 373.624L348.543 336.036H229.592C233.57 338.284 261.909 343.469 278.033 343.469C294.157 343.469 307.594 348.642 294.378 355.373Z" fill="white"/>
<path opacity="0.3" d="M389.411 336.035H412.864C401.091 335.538 389.411 336.035 389.411 336.035Z" fill="white"/>
<path opacity="0.3" d="M428.103 337.53L372.391 376.945C379.453 376.651 386.84 376.46 393.994 376.268C424.858 375.451 413.655 360.75 415.749 355.564C417.843 350.379 435.362 351.235 436.758 342.588C437.154 340.136 433.513 338.552 428.103 337.53Z" fill="white"/>
</g>
<path d="M87.002 121.22V224.24H223.496V121.22H87.002ZM99.6823 133.877C98.9369 133.877 98.2081 133.634 97.5883 133.18C96.9684 132.725 96.4853 132.079 96.2 131.322C95.9147 130.566 95.8401 129.734 95.9855 128.931C96.131 128.129 96.49 127.391 97.0171 126.813C97.5442 126.234 98.2158 125.84 98.947 125.68C99.6781 125.52 100.436 125.602 101.125 125.916C101.813 126.229 102.402 126.759 102.816 127.44C103.23 128.12 103.452 128.92 103.452 129.739C103.452 130.836 103.054 131.889 102.348 132.665C101.641 133.441 100.682 133.877 99.6823 133.877ZM210.688 133.877C209.942 133.877 209.214 133.634 208.594 133.18C207.974 132.725 207.491 132.079 207.206 131.322C206.92 130.566 206.846 129.734 206.991 128.931C207.137 128.129 207.496 127.391 208.023 126.813C208.55 126.234 209.221 125.84 209.953 125.68C210.684 125.52 211.442 125.602 212.13 125.916C212.819 126.229 213.408 126.759 213.822 127.44C214.236 128.12 214.457 128.92 214.457 129.739C214.454 130.835 214.056 131.886 213.35 132.661C212.644 133.437 211.687 133.874 210.688 133.877Z" fill="#81E6D9" stroke="#2E353A" stroke-miterlimit="10"/>
<path d="M214.457 129.739C214.457 130.557 214.236 131.357 213.821 132.038C213.407 132.718 212.819 133.249 212.13 133.562C211.441 133.875 210.683 133.957 209.952 133.797C209.221 133.638 208.549 133.243 208.022 132.665C207.495 132.086 207.136 131.349 206.991 130.546C206.845 129.743 206.92 128.911 207.205 128.155C207.49 127.399 207.974 126.752 208.593 126.298C209.213 125.843 209.942 125.6 210.687 125.6H99.6819C100.427 125.6 101.156 125.843 101.776 126.298C102.396 126.752 102.879 127.399 103.164 128.155C103.449 128.911 103.524 129.743 103.379 130.546C103.233 131.349 102.874 132.086 102.347 132.665C101.82 133.243 101.148 133.638 100.417 133.797C99.6861 133.957 98.9282 133.875 98.2395 133.562C97.5507 133.249 96.9621 132.718 96.5479 132.038C96.1337 131.357 95.9127 130.557 95.9127 129.739C95.9127 128.641 96.3098 127.588 97.0166 126.812C97.7235 126.036 98.6822 125.6 99.6819 125.6H90.9336V218.557H218.272V125.6H210.687C211.687 125.6 212.646 126.036 213.353 126.812C214.06 127.588 214.457 128.641 214.457 129.739Z" fill="#2E353A"/>
<path d="M99.6816 81.3701C98.5983 81.3727 97.5401 81.7276 96.6406 82.3901C95.741 83.0527 95.0406 83.9931 94.6276 85.0925C94.2147 86.1919 94.1078 87.4011 94.3206 88.5672C94.5333 89.7333 95.0561 90.8039 95.8228 91.644C96.5896 92.484 97.5659 93.0557 98.6285 93.2867C99.691 93.5178 100.792 93.3979 101.793 92.9423C102.793 92.4866 103.648 91.7155 104.25 90.7266C104.851 89.7376 105.172 88.575 105.172 87.3858C105.172 86.5947 105.03 85.8114 104.754 85.0807C104.478 84.35 104.074 83.6863 103.564 83.1276C103.053 82.5688 102.448 82.1259 101.782 81.8244C101.116 81.5228 100.402 81.3685 99.6816 81.3701ZM99.6816 91.3962C98.9596 91.3937 98.2545 91.1563 97.6553 90.7141C97.0561 90.2719 96.5897 89.6447 96.315 88.9117C96.0403 88.1786 95.9697 87.3727 96.1119 86.5956C96.2542 85.8185 96.603 85.1051 97.1143 84.5455C97.6256 83.9859 98.2765 83.6052 98.9848 83.4515C99.6931 83.2978 100.427 83.3779 101.094 83.6819C101.761 83.9858 102.33 84.4998 102.731 85.159C103.132 85.8183 103.346 86.5931 103.346 87.3858C103.349 87.9163 103.257 88.4422 103.074 88.9332C102.891 89.4243 102.622 89.8708 102.281 90.2471C101.94 90.6234 101.535 90.9221 101.089 91.1258C100.643 91.3296 100.165 91.4345 99.6816 91.4345V91.3962Z" fill="white" stroke="#2E353A" stroke-width="0.916642" stroke-linecap="round" stroke-linejoin="round"/>
<path d="M99.6823 95.8154C98.5958 95.8154 97.5338 96.1693 96.6305 96.8323C95.7273 97.4953 95.0235 98.4375 94.6083 99.5398C94.193 100.642 94.085 101.855 94.2978 103.024C94.5106 104.194 95.0347 105.268 95.8038 106.111C96.5729 106.953 97.5524 107.527 98.6183 107.758C99.6842 107.989 100.789 107.868 101.792 107.409C102.795 106.951 103.652 106.177 104.254 105.184C104.856 104.191 105.176 103.024 105.173 101.831C105.173 101.04 105.031 100.257 104.755 99.526C104.479 98.7953 104.074 98.1316 103.564 97.5728C103.054 97.0141 102.449 96.5712 101.783 96.2697C101.117 95.9681 100.403 95.8138 99.6823 95.8154ZM99.6823 105.854C98.9576 105.854 98.2491 105.618 97.6465 105.176C97.0438 104.734 96.5741 104.106 96.2968 103.371C96.0194 102.635 95.9469 101.826 96.0883 101.046C96.2296 100.266 96.5787 99.5488 97.0912 98.9862C97.6036 98.4235 98.2566 98.0404 98.9674 97.8851C99.6783 97.7299 100.415 97.8096 101.085 98.1141C101.754 98.4186 102.327 98.9342 102.729 99.5958C103.132 100.257 103.347 101.035 103.347 101.831C103.347 102.898 102.961 103.921 102.274 104.676C101.586 105.43 100.654 105.854 99.6823 105.854Z" fill="white" stroke="#2E353A" stroke-width="0.916642" stroke-linecap="round" stroke-linejoin="round"/>
<path d="M99.6816 108.549C98.5983 108.552 97.5401 108.907 96.6406 109.569C95.741 110.232 95.0406 111.172 94.6276 112.272C94.2147 113.371 94.1078 114.58 94.3206 115.746C94.5333 116.912 95.0561 117.983 95.8228 118.823C96.5896 119.663 97.5659 120.235 98.6285 120.466C99.691 120.697 100.792 120.577 101.793 120.121C102.793 119.666 103.648 118.895 104.25 117.906C104.851 116.917 105.172 115.754 105.172 114.565C105.172 113.774 105.03 112.991 104.754 112.26C104.478 111.529 104.074 110.866 103.564 110.307C103.053 109.748 102.448 109.305 101.782 109.004C101.116 108.702 100.402 108.548 99.6816 108.549ZM99.6816 118.575C98.9596 118.573 98.2545 118.336 97.6553 117.893C97.0561 117.451 96.5897 116.824 96.315 116.091C96.0403 115.358 95.9697 114.552 96.1119 113.775C96.2542 112.998 96.603 112.284 97.1143 111.725C97.6256 111.165 98.2765 110.784 98.9848 110.631C99.6931 110.477 100.427 110.557 101.094 110.861C101.761 111.165 102.33 111.679 102.731 112.338C103.132 112.997 103.346 113.772 103.346 114.565C103.343 115.63 102.956 116.65 102.269 117.402C101.582 118.153 100.651 118.575 99.6816 118.575Z" fill="white" stroke="#2E353A" stroke-width="0.916642" stroke-linecap="round" stroke-linejoin="round"/>
<path d="M99.6824 101.18C99.4263 101.18 99.1807 101.068 98.9996 100.869C98.8185 100.67 98.7168 100.401 98.7168 100.119V90.1956C98.7168 89.9144 98.8185 89.6448 98.9996 89.446C99.1807 89.2472 99.4263 89.1355 99.6824 89.1355C99.9395 89.1355 100.186 89.2467 100.369 89.4452C100.552 89.6436 100.657 89.9133 100.66 90.1956V100.119C100.657 100.402 100.552 100.671 100.369 100.87C100.186 101.068 99.9395 101.18 99.6824 101.18Z" fill="white" stroke="#2E353A" stroke-width="0.916642" stroke-linecap="round" stroke-linejoin="round"/>
<path d="M99.6824 114.833C99.4263 114.833 99.1807 114.721 98.9996 114.523C98.8185 114.324 98.7168 114.054 98.7168 113.773V103.849C98.7168 103.568 98.8185 103.298 98.9996 103.099C99.1807 102.901 99.4263 102.789 99.6824 102.789C99.9395 102.789 100.186 102.9 100.369 103.099C100.552 103.297 100.657 103.567 100.66 103.849V113.773C100.657 114.055 100.552 114.325 100.369 114.523C100.186 114.722 99.9395 114.833 99.6824 114.833Z" fill="white" stroke="#2E353A" stroke-width="0.916642" stroke-linecap="round" stroke-linejoin="round"/>
<path d="M99.6824 128.512C99.4263 128.512 99.1807 128.401 98.9996 128.202C98.8185 128.003 98.7168 127.733 98.7168 127.452V117.528C98.7168 117.389 98.7418 117.251 98.7903 117.123C98.8388 116.994 98.9099 116.877 98.9996 116.779C99.0893 116.68 99.1957 116.602 99.3129 116.549C99.43 116.496 99.5556 116.468 99.6824 116.468C99.9395 116.468 100.186 116.58 100.369 116.778C100.552 116.976 100.657 117.246 100.66 117.528V127.452C100.657 127.735 100.552 128.004 100.369 128.203C100.186 128.401 99.9395 128.512 99.6824 128.512Z" fill="white" stroke="#2E353A" stroke-width="0.916642" stroke-linecap="round" stroke-linejoin="round"/>
<path d="M210.687 81.3701C209.604 81.3727 208.546 81.7276 207.646 82.3901C206.747 83.0527 206.046 83.9931 205.633 85.0925C205.221 86.1919 205.114 87.4011 205.326 88.5672C205.539 89.7333 206.062 90.8039 206.829 91.644C207.595 92.484 208.572 93.0557 209.634 93.2867C210.697 93.5178 211.798 93.3979 212.799 92.9423C213.799 92.4866 214.654 91.7155 215.256 90.7266C215.857 89.7376 216.178 88.575 216.178 87.3858C216.178 86.5947 216.036 85.8114 215.76 85.0807C215.484 84.35 215.079 83.6863 214.569 83.1276C214.059 82.5688 213.454 82.1259 212.788 81.8244C212.122 81.5228 211.408 81.3685 210.687 81.3701ZM210.687 91.3962C209.965 91.3937 209.26 91.1563 208.661 90.7141C208.062 90.2719 207.596 89.6447 207.321 88.9117C207.046 88.1786 206.976 87.3727 207.118 86.5956C207.26 85.8185 207.609 85.1051 208.12 84.5455C208.632 83.9859 209.282 83.6052 209.991 83.4515C210.699 83.2978 211.433 83.3779 212.1 83.6819C212.766 83.9858 213.336 84.4998 213.737 85.159C214.138 85.8183 214.352 86.5931 214.352 87.3858C214.355 87.9163 214.262 88.4422 214.08 88.9332C213.897 89.4243 213.627 89.8708 213.287 90.2471C212.946 90.6234 212.541 90.9221 212.095 91.1258C211.649 91.3296 211.171 91.4345 210.687 91.4345V91.3962Z" fill="white" stroke="#2E353A" stroke-width="0.916642" stroke-linecap="round" stroke-linejoin="round"/>
<path d="M210.687 95.8154C209.601 95.8154 208.539 96.1693 207.635 96.8323C206.732 97.4953 206.028 98.4375 205.613 99.5398C205.198 100.642 205.09 101.855 205.303 103.024C205.515 104.194 206.04 105.268 206.809 106.111C207.578 106.953 208.557 107.527 209.623 107.758C210.689 107.989 211.793 107.868 212.797 107.409C213.8 106.951 214.657 106.177 215.258 105.184C215.86 104.191 216.181 103.024 216.178 101.831C216.178 101.04 216.036 100.257 215.76 99.526C215.484 98.7953 215.079 98.1316 214.569 97.5728C214.059 97.0141 213.454 96.5712 212.788 96.2697C212.122 95.9681 211.408 95.8138 210.687 95.8154ZM210.687 105.854C209.962 105.854 209.254 105.618 208.651 105.176C208.049 104.734 207.579 104.106 207.302 103.371C207.024 102.635 206.952 101.826 207.093 101.046C207.235 100.266 207.584 99.5488 208.096 98.9862C208.609 98.4235 209.261 98.0404 209.972 97.8851C210.683 97.7299 211.42 97.8096 212.09 98.1141C212.759 98.4186 213.332 98.9342 213.734 99.5958C214.137 100.257 214.352 101.035 214.352 101.831C214.352 102.359 214.257 102.882 214.073 103.371C213.889 103.859 213.619 104.302 213.278 104.676C212.938 105.049 212.534 105.346 212.09 105.548C211.645 105.75 211.168 105.854 210.687 105.854Z" fill="white" stroke="#2E353A" stroke-width="0.916642" stroke-linecap="round" stroke-linejoin="round"/>
<path d="M210.687 108.549C209.604 108.552 208.546 108.907 207.646 109.569C206.747 110.232 206.046 111.172 205.633 112.272C205.221 113.371 205.114 114.58 205.326 115.746C205.539 116.912 206.062 117.983 206.829 118.823C207.595 119.663 208.572 120.235 209.634 120.466C210.697 120.697 211.798 120.577 212.799 120.121C213.799 119.666 214.654 118.895 215.256 117.906C215.857 116.917 216.178 115.754 216.178 114.565C216.178 113.774 216.036 112.991 215.76 112.26C215.484 111.529 215.079 110.866 214.569 110.307C214.059 109.748 213.454 109.305 212.788 109.004C212.122 108.702 211.408 108.548 210.687 108.549ZM210.687 118.575C209.965 118.573 209.26 118.336 208.661 117.893C208.062 117.451 207.596 116.824 207.321 116.091C207.046 115.358 206.976 114.552 207.118 113.775C207.26 112.998 207.609 112.284 208.12 111.725C208.632 111.165 209.282 110.784 209.991 110.631C210.699 110.477 211.433 110.557 212.1 110.861C212.766 111.165 213.336 111.679 213.737 112.338C214.138 112.997 214.352 113.772 214.352 114.565C214.349 115.63 213.961 116.65 213.275 117.402C212.588 118.153 211.657 118.575 210.687 118.575Z" fill="white" stroke="#2E353A" stroke-width="0.916642" stroke-linecap="round" stroke-linejoin="round"/>
<path d="M210.687 101.18C210.431 101.18 210.186 101.068 210.004 100.869C209.823 100.67 209.722 100.401 209.722 100.119V90.1956C209.722 89.9144 209.823 89.6448 210.004 89.446C210.186 89.2472 210.431 89.1355 210.687 89.1355C210.944 89.1355 211.191 89.2467 211.374 89.4452C211.557 89.6436 211.661 89.9133 211.664 90.1956V100.119C211.661 100.402 211.557 100.671 211.374 100.87C211.191 101.068 210.944 101.18 210.687 101.18Z" fill="white" stroke="#2E353A" stroke-width="0.916642" stroke-linecap="round" stroke-linejoin="round"/>
<path d="M210.687 114.833C210.431 114.833 210.186 114.721 210.004 114.523C209.823 114.324 209.722 114.054 209.722 113.773V103.849C209.722 103.568 209.823 103.298 210.004 103.099C210.186 102.901 210.431 102.789 210.687 102.789C210.944 102.789 211.191 102.9 211.374 103.099C211.557 103.297 211.661 103.567 211.664 103.849V113.773C211.661 114.055 211.557 114.325 211.374 114.523C211.191 114.722 210.944 114.833 210.687 114.833Z" fill="white" stroke="#2E353A" stroke-width="0.916642" stroke-linecap="round" stroke-linejoin="round"/>
<path d="M210.687 128.512C210.431 128.512 210.186 128.401 210.004 128.202C209.823 128.003 209.722 127.733 209.722 127.452V117.528C209.722 117.389 209.747 117.251 209.795 117.123C209.844 116.994 209.915 116.877 210.004 116.779C210.094 116.68 210.201 116.602 210.318 116.549C210.435 116.496 210.56 116.468 210.687 116.468C210.944 116.468 211.191 116.58 211.374 116.778C211.557 116.976 211.661 117.246 211.664 117.528V127.452C211.661 127.735 211.557 128.004 211.374 128.203C211.191 128.401 210.944 128.512 210.687 128.512Z" fill="white" stroke="#2E353A" stroke-width="0.916642" stroke-linecap="round" stroke-linejoin="round"/>
<path d="M239.027 84.5505H25.8571L19.1562 64.2168H253.743L239.027 84.5505Z" fill="#2E353A" stroke="#2E353A" stroke-width="0.887535" stroke-linecap="round" stroke-linejoin="round"/>
<path d="M233.593 84.5505H20.4235L13.7227 64.2168H248.321L233.593 84.5505Z" fill="white" stroke="#2E353A" stroke-width="0.887535" stroke-linecap="round" stroke-linejoin="round"/>
<path d="M59.9892 407.535H42.5508L47.8207 7.87866H50.9152L59.9892 22.0175V407.535Z" fill="#2E353A" stroke="#2E353A" stroke-width="0.887535" stroke-linecap="round" stroke-linejoin="round"/>
<path d="M56.8828 407.535H39.4443V22.0175L47.8204 7.87866L56.8828 22.0175V407.535Z" fill="white" stroke="#2E353A" stroke-width="0.887535" stroke-linecap="round" stroke-linejoin="round"/>
<path d="M112.684 162.804V164.7H104.428V170.712H111.484V172.608H104.428V180H102.088V162.804H112.684ZM131.99 171.324C131.99 172.596 131.778 173.776 131.354 174.864C130.93 175.944 130.334 176.88 129.566 177.672C128.798 178.464 127.874 179.084 126.794 179.532C125.714 179.972 124.518 180.192 123.206 180.192C121.894 180.192 120.694 179.972 119.606 179.532C118.526 179.084 117.598 178.464 116.822 177.672C116.054 176.88 115.458 175.944 115.034 174.864C114.61 173.776 114.398 172.596 114.398 171.324C114.398 170.052 114.61 168.876 115.034 167.796C115.458 166.708 116.054 165.768 116.822 164.976C117.598 164.184 118.526 163.568 119.606 163.128C120.694 162.68 121.894 162.456 123.206 162.456C124.518 162.456 125.714 162.68 126.794 163.128C127.874 163.576 128.798 164.196 129.566 164.988C130.334 165.772 130.93 166.708 131.354 167.796C131.778 168.876 131.99 170.052 131.99 171.324ZM128.678 171.324C128.678 170.372 128.55 169.52 128.294 168.768C128.046 168.008 127.686 167.364 127.214 166.836C126.742 166.308 126.166 165.904 125.486 165.624C124.814 165.344 124.054 165.204 123.206 165.204C122.358 165.204 121.594 165.344 120.914 165.624C120.234 165.904 119.654 166.308 119.174 166.836C118.702 167.364 118.338 168.008 118.082 168.768C117.826 169.52 117.698 170.372 117.698 171.324C117.698 172.276 117.826 173.132 118.082 173.892C118.338 174.644 118.702 175.284 119.174 175.812C119.654 176.332 120.234 176.732 120.914 177.012C121.594 177.292 122.358 177.432 123.206 177.432C124.054 177.432 124.814 177.292 125.486 177.012C126.166 176.732 126.742 176.332 127.214 175.812C127.686 175.284 128.046 174.644 128.294 173.892C128.55 173.132 128.678 172.276 128.678 171.324ZM137.877 173.22V180H134.649V162.648H139.941C141.125 162.648 142.137 162.772 142.977 163.02C143.825 163.26 144.517 163.6 145.053 164.04C145.597 164.48 145.993 165.008 146.241 165.624C146.497 166.232 146.625 166.904 146.625 167.64C146.625 168.224 146.537 168.776 146.361 169.296C146.193 169.816 145.945 170.288 145.617 170.712C145.297 171.136 144.897 171.508 144.417 171.828C143.945 172.148 143.405 172.404 142.797 172.596C143.205 172.828 143.557 173.16 143.853 173.592L148.197 180H145.293C145.013 180 144.773 179.944 144.573 179.832C144.381 179.72 144.217 179.56 144.081 179.352L140.433 173.796C140.297 173.588 140.145 173.44 139.977 173.352C139.817 173.264 139.577 173.22 139.257 173.22H137.877ZM137.877 170.904H139.893C140.501 170.904 141.029 170.828 141.477 170.676C141.933 170.524 142.305 170.316 142.593 170.052C142.889 169.78 143.109 169.46 143.253 169.092C143.397 168.724 143.469 168.32 143.469 167.88C143.469 167 143.177 166.324 142.593 165.852C142.017 165.38 141.133 165.144 139.941 165.144H137.877V170.904ZM159.412 165.492C159.34 165.612 159.264 165.704 159.184 165.768C159.104 165.824 159 165.852 158.872 165.852C158.736 165.852 158.576 165.784 158.392 165.648C158.216 165.512 157.988 165.364 157.708 165.204C157.436 165.036 157.104 164.884 156.712 164.748C156.328 164.612 155.86 164.544 155.308 164.544C154.788 164.544 154.328 164.616 153.928 164.76C153.528 164.896 153.192 165.084 152.92 165.324C152.656 165.564 152.456 165.848 152.32 166.176C152.184 166.496 152.116 166.844 152.116 167.22C152.116 167.7 152.232 168.1 152.464 168.42C152.704 168.732 153.016 169 153.4 169.224C153.792 169.448 154.232 169.644 154.72 169.812C155.216 169.972 155.72 170.14 156.232 170.316C156.752 170.492 157.256 170.692 157.744 170.916C158.24 171.132 158.68 171.408 159.064 171.744C159.456 172.08 159.768 172.492 160 172.98C160.24 173.468 160.36 174.068 160.36 174.78C160.36 175.532 160.232 176.24 159.976 176.904C159.72 177.56 159.344 178.132 158.848 178.62C158.36 179.108 157.756 179.492 157.036 179.772C156.324 180.052 155.512 180.192 154.6 180.192C153.488 180.192 152.472 179.992 151.552 179.592C150.64 179.184 149.86 178.636 149.212 177.948L149.884 176.844C149.948 176.756 150.024 176.684 150.112 176.628C150.208 176.564 150.312 176.532 150.424 176.532C150.592 176.532 150.784 176.624 151 176.808C151.216 176.984 151.484 177.18 151.804 177.396C152.132 177.612 152.524 177.812 152.98 177.996C153.444 178.172 154.008 178.26 154.672 178.26C155.224 178.26 155.716 178.184 156.148 178.032C156.58 177.88 156.944 177.668 157.24 177.396C157.544 177.116 157.776 176.784 157.936 176.4C158.096 176.016 158.176 175.588 158.176 175.116C158.176 174.596 158.056 174.172 157.816 173.844C157.584 173.508 157.276 173.228 156.892 173.004C156.508 172.78 156.068 172.592 155.572 172.44C155.084 172.28 154.58 172.12 154.06 171.96C153.548 171.792 153.044 171.6 152.548 171.384C152.06 171.168 151.624 170.888 151.24 170.544C150.856 170.2 150.544 169.772 150.304 169.26C150.072 168.74 149.956 168.1 149.956 167.34C149.956 166.732 150.072 166.144 150.304 165.576C150.544 165.008 150.888 164.504 151.336 164.064C151.784 163.624 152.336 163.272 152.992 163.008C153.656 162.744 154.416 162.612 155.272 162.612C156.232 162.612 157.108 162.764 157.9 163.068C158.692 163.372 159.384 163.812 159.976 164.388L159.412 165.492ZM178.246 180H175.75C175.47 180 175.238 179.932 175.054 179.796C174.878 179.652 174.75 179.476 174.67 179.268L173.374 175.728H166.186L164.89 179.268C164.826 179.452 164.698 179.62 164.506 179.772C164.322 179.924 164.094 180 163.822 180H161.314L168.13 162.648H171.43L178.246 180ZM167.014 173.448H172.546L170.434 167.676C170.338 167.42 170.23 167.12 170.11 166.776C169.998 166.424 169.886 166.044 169.774 165.636C169.662 166.044 169.55 166.424 169.438 166.776C169.334 167.128 169.23 167.436 169.126 167.7L167.014 173.448ZM183.261 177.336H190.209V180H180.033V162.648H183.261V177.336ZM203.376 162.648V165.216H195.684V170.028H201.744V172.512H195.684V177.42H203.376V180H192.432V162.648H203.376Z" fill="white"/>
<path d="M42.5508 407.535V382.948" stroke="#2E353A" stroke-width="0.887535" stroke-linecap="round" stroke-linejoin="round"/>
<path d="M45.5986 407.534V317.733" stroke="#2E353A" stroke-width="0.887535" stroke-linecap="round" stroke-linejoin="round"/>
<path d="M42.5508 379.218V370.278" stroke="#2E353A" stroke-width="0.887535" stroke-linecap="round" stroke-linejoin="round"/>
<path d="M51.2637 249.248V240.308" stroke="#2E353A" stroke-width="0.887535" stroke-linecap="round" stroke-linejoin="round"/>
<path d="M42.5508 25.8359V16.8956" stroke="#2E353A" stroke-width="0.887535" stroke-linecap="round" stroke-linejoin="round"/>
<path d="M42.5508 37.6125V28.6719" stroke="#2E353A" stroke-width="0.887535" stroke-linecap="round" stroke-linejoin="round"/>
<path d="M51.2637 305.931V259.287" stroke="#2E353A" stroke-width="0.887535" stroke-linecap="round" stroke-linejoin="round"/>
<path d="M15.4326 68.457H21.5401" stroke="#2E353A" stroke-width="0.887535" stroke-linecap="round" stroke-linejoin="round"/>
<path d="M18.1436 71.8162H32.7434" stroke="#2E353A" stroke-width="0.887535" stroke-linecap="round" stroke-linejoin="round"/>
<path d="M72.4131 71.8162H87.0013" stroke="#2E353A" stroke-width="0.887535" stroke-linecap="round" stroke-linejoin="round"/>
<path d="M79.707 75.5459H84.8374" stroke="#2E353A" stroke-width="0.887535" stroke-linecap="round" stroke-linejoin="round"/>
<path d="M105.615 75.5459H136.071" stroke="#2E353A" stroke-width="0.887535" stroke-linecap="round" stroke-linejoin="round"/>
<path d="M240.446 75.5459H235.351" stroke="#2E353A" stroke-width="0.887535" stroke-linecap="round" stroke-linejoin="round"/>
<path d="M238.061 78.1514H220.762" stroke="#2E353A" stroke-width="0.887535" stroke-linecap="round" stroke-linejoin="round"/>
<path d="M4.04402 413.448H15.4563C15.4563 413.448 -5.26267 393.166 4.04402 395.235C13.3507 397.304 21.4941 404.507 21.4941 404.507C21.4941 404.507 10.4889 393.14 18.0971 395.209C25.7053 397.278 25.3912 400.701 25.3912 400.701C25.3912 400.701 25.9845 376.14 32.697 382.922C36.5938 386.663 38.9995 391.932 39.3978 397.598C39.3978 397.598 53.7418 378.12 56.8479 379.193C59.954 380.266 59.954 392.182 59.954 392.182C59.954 392.182 84.0467 370.623 79.6725 382.922C75.2984 395.222 72.3784 399.846 72.3784 399.846C72.3784 399.846 83.686 388.874 82.2435 395.209C81.6275 398.267 80.7672 401.258 79.6725 404.15C79.6725 404.15 96.6805 410 94.1677 409.987C91.6549 409.974 86.9667 413.525 86.9667 413.525C86.9667 413.525 115.689 408.416 110.233 413.525C104.777 418.634 59.9307 417.778 59.9307 417.778C59.9307 417.778 81.8363 423.666 72.4133 423.666C62.9903 423.666 48.1694 419.4 48.1694 419.4C48.1694 419.4 26.066 424.509 18.1437 423.666C10.2213 422.823 32.7435 419.4 32.7435 419.4C32.7435 419.4 -10.1138 419.451 4.04402 413.448Z" fill="#2E353A" stroke="#2E353A" stroke-width="0.916642" stroke-linecap="round" stroke-linejoin="round"/>
</svg>
