<svg width="135" height="32" viewBox="0 0 135 32" fill="none" xmlns="http://www.w3.org/2000/svg">
<path d="M16.056 19.4358C16.212 19.4358 16.332 19.5138 16.416 19.6698C16.512 19.8138 16.56 19.9998 16.56 20.2278C16.56 20.5038 16.518 20.7198 16.434 20.8758C16.35 21.0318 16.218 21.1698 16.038 21.2898C15.33 21.7578 14.202 22.5258 12.654 23.5938C12.186 26.0778 11.58 28.0338 10.836 29.4618C10.092 30.8898 9.15 31.6038 8.01 31.6038C7.398 31.6038 6.9 31.4118 6.516 31.0278C6.132 30.6558 5.94 30.1638 5.94 29.5518C5.94 28.9878 6.066 28.4178 6.318 27.8418C6.57 27.2658 7.038 26.5998 7.722 25.8438C8.418 25.0878 9.396 24.2238 10.656 23.2518L10.71 22.9098C9.762 23.3058 8.832 23.5038 7.92 23.5038C6.576 23.5038 5.394 23.2458 4.374 22.7298C3.354 22.2018 2.562 21.4578 1.998 20.4978C1.434 19.5378 1.152 18.4218 1.152 17.1498C1.152 15.3738 1.488 13.8078 2.16 12.4518C2.832 11.0838 3.756 10.0278 4.932 9.28382C6.12 8.52782 7.446 8.14982 8.91 8.14982C10.314 8.14982 11.364 8.47982 12.06 9.13982C12.768 9.78782 13.122 10.6518 13.122 11.7318C13.122 12.4398 12.99 13.0098 12.726 13.4418C12.474 13.8618 12.108 14.0718 11.628 14.0718C11.304 14.0718 11.04 13.9938 10.836 13.8378C10.644 13.6818 10.548 13.4658 10.548 13.1898C10.548 13.0698 10.572 12.8658 10.62 12.5778C10.692 12.2418 10.728 11.9778 10.728 11.7858C10.728 11.2818 10.572 10.8918 10.26 10.6158C9.96 10.3398 9.45 10.2018 8.73 10.2018C7.854 10.2018 7.038 10.4538 6.282 10.9578C5.538 11.4618 4.938 12.2178 4.482 13.2258C4.026 14.2218 3.798 15.4218 3.798 16.8258C3.798 18.2658 4.188 19.3818 4.968 20.1738C5.76 20.9538 6.9 21.3438 8.388 21.3438C9.216 21.3438 10.08 21.1578 10.98 20.7858L11.232 18.5898H9.396C9.06 18.5898 8.802 18.5118 8.622 18.3558C8.442 18.1878 8.352 17.9178 8.352 17.5458C8.352 17.2098 8.442 16.9458 8.622 16.7538C8.802 16.5618 9.042 16.4658 9.342 16.4658H12.708C12.972 16.4658 13.188 16.5558 13.356 16.7358C13.536 16.9038 13.608 17.1498 13.572 17.4738C13.536 17.8578 13.416 18.7278 13.212 20.0838L13.014 21.4518C13.974 20.7318 14.85 20.1078 15.642 19.5798C15.798 19.4838 15.936 19.4358 16.056 19.4358ZM8.208 29.8578C8.52 29.8578 8.862 29.5038 9.234 28.7958C9.606 28.0878 9.954 26.9478 10.278 25.3758C9.366 26.1558 8.706 26.8578 8.298 27.4818C7.902 28.1178 7.704 28.6758 7.704 29.1558C7.704 29.6238 7.872 29.8578 8.208 29.8578ZM23.4818 19.3998C23.6378 19.3998 23.7578 19.4718 23.8418 19.6158C23.9378 19.7598 23.9858 19.9578 23.9858 20.2098C23.9858 20.6898 23.8718 21.0618 23.6438 21.3258C23.1998 21.8658 22.5698 22.3638 21.7538 22.8198C20.9498 23.2758 20.0858 23.5038 19.1618 23.5038C17.9018 23.5038 16.9238 23.1618 16.2278 22.4778C15.5318 21.7938 15.1838 20.8578 15.1838 19.6698C15.1838 18.8418 15.3578 18.0738 15.7058 17.3658C16.0538 16.6458 16.5338 16.0758 17.1458 15.6558C17.7698 15.2358 18.4718 15.0258 19.2518 15.0258C19.9478 15.0258 20.5058 15.2358 20.9258 15.6558C21.3458 16.0638 21.5558 16.6218 21.5558 17.3298C21.5558 18.1578 21.2558 18.8718 20.6558 19.4718C20.0678 20.0598 19.0658 20.5278 17.6498 20.8758C17.9498 21.4278 18.5198 21.7038 19.3598 21.7038C19.8998 21.7038 20.5118 21.5178 21.1958 21.1458C21.8918 20.7618 22.4918 20.2638 22.9958 19.6518C23.1398 19.4838 23.3018 19.3998 23.4818 19.3998ZM18.9458 16.7898C18.5018 16.7898 18.1238 17.0478 17.8118 17.5638C17.5118 18.0798 17.3618 18.7038 17.3618 19.4358V19.4718C18.0698 19.3038 18.6278 19.0518 19.0358 18.7158C19.4438 18.3798 19.6478 17.9898 19.6478 17.5458C19.6478 17.3178 19.5818 17.1378 19.4498 17.0058C19.3298 16.8618 19.1618 16.7898 18.9458 16.7898ZM25.4903 16.7358C25.4663 17.3358 25.4543 17.8038 25.4543 18.1398C25.4543 19.0038 25.4963 19.6818 25.5803 20.1738C25.6763 20.6538 25.8263 21.0018 26.0303 21.2178C26.2463 21.4218 26.5403 21.5238 26.9123 21.5238C27.1043 21.5238 27.3323 21.4638 27.5963 21.3438C27.8603 21.2238 28.1003 21.0678 28.3163 20.8758C28.4483 20.7558 28.5803 20.6958 28.7123 20.6958C28.8563 20.6958 28.9703 20.7798 29.0543 20.9478C29.1503 21.1038 29.1983 21.2958 29.1983 21.5238C29.1983 21.7518 29.1503 21.9738 29.0543 22.1898C28.9703 22.4058 28.8383 22.5858 28.6583 22.7298C28.0343 23.2458 27.3263 23.5038 26.5343 23.5038C25.3943 23.5038 24.5603 23.0298 24.0322 22.0818C23.5043 21.1218 23.2403 19.8738 23.2403 18.3378C23.2403 17.8098 23.2583 17.2758 23.2943 16.7358H22.5923C22.2323 16.7358 21.9863 16.6698 21.8543 16.5378C21.7343 16.4058 21.6743 16.1958 21.6743 15.9078C21.6743 15.2358 21.9443 14.8998 22.4843 14.8998H23.5103C23.7143 13.5798 24.0263 12.3738 24.4463 11.2818C24.8663 10.1898 25.3703 9.31982 25.9583 8.67182C26.5583 8.02382 27.2003 7.69982 27.8843 7.69982C28.3883 7.69982 28.7843 7.92182 29.0723 8.36582C29.3603 8.80982 29.5043 9.36782 29.5043 10.0398C29.5043 11.8998 28.7243 13.5198 27.1643 14.8998H29.1803C29.3723 14.8998 29.5103 14.9418 29.5943 15.0258C29.6783 15.1098 29.7203 15.2658 29.7203 15.4938C29.7203 16.3218 29.0423 16.7358 27.6863 16.7358H25.4903ZM27.3983 9.42782C27.2183 9.42782 27.0143 9.65582 26.7863 10.1118C26.5703 10.5558 26.3603 11.1798 26.1562 11.9838C25.9643 12.7758 25.8023 13.6578 25.6703 14.6298C26.3783 14.0178 26.9063 13.3338 27.2543 12.5778C27.6143 11.8098 27.7943 11.1138 27.7943 10.4898C27.7943 9.78182 27.6623 9.42782 27.3983 9.42782ZM48.9935 8.47382C49.3655 8.54582 49.6415 8.67182 49.8215 8.85182C50.0135 9.03182 50.1095 9.24182 50.1095 9.48182C50.1095 9.87782 49.9955 10.1658 49.7675 10.3458C49.5515 10.5258 49.2035 10.5978 48.7235 10.5618C47.6435 10.4778 46.7975 10.4238 46.1855 10.3998C45.5855 10.3638 44.7935 10.3398 43.8095 10.3278C43.3655 12.5358 42.9575 14.7558 42.5855 16.9878C42.4535 17.8038 42.3155 18.7518 42.1715 19.8318C42.0275 20.8998 41.9315 21.7638 41.8835 22.4238C41.8595 22.7718 41.7155 23.0418 41.4515 23.2338C41.1875 23.4138 40.8695 23.5038 40.4975 23.5038C40.1015 23.5038 39.7955 23.4078 39.5795 23.2158C39.3635 23.0238 39.2555 22.7718 39.2555 22.4598C39.2555 22.1718 39.2975 21.6978 39.3815 21.0378C39.4775 20.3658 39.5855 19.6638 39.7055 18.9318C39.8375 18.1998 39.9395 17.5638 40.0115 17.0238C40.1435 16.1118 40.2935 15.2058 40.4615 14.3058C40.6295 13.4058 40.7975 12.5538 40.9655 11.7498C41.0015 11.5698 41.0435 11.3658 41.0915 11.1378C41.1395 10.8978 41.1935 10.6338 41.2535 10.3458C40.0775 10.3818 39.1535 10.4778 38.4815 10.6338C37.8095 10.7898 37.3295 11.0118 37.0415 11.2998C36.7655 11.5758 36.6275 11.9358 36.6275 12.3798C36.6275 12.7878 36.7475 13.1778 36.9875 13.5498C37.0355 13.6338 37.0595 13.7238 37.0595 13.8198C37.0595 14.0478 36.9215 14.2638 36.6455 14.4678C36.3815 14.6598 36.1055 14.7558 35.8175 14.7558C35.6135 14.7558 35.4455 14.6958 35.3135 14.5758C35.0735 14.3718 34.8755 14.0838 34.7195 13.7118C34.5635 13.3278 34.4855 12.8958 34.4855 12.4158C34.4855 11.3958 34.8155 10.5798 35.4755 9.96782C36.1475 9.34382 37.1615 8.88782 38.5175 8.59982C39.8855 8.31182 41.6375 8.16782 43.7735 8.16782C45.0935 8.16782 46.1435 8.19182 46.9235 8.23982C47.7155 8.28782 48.4055 8.36582 48.9935 8.47382ZM57.2603 19.3998C57.4163 19.3998 57.5363 19.4718 57.6203 19.6158C57.7163 19.7598 57.7643 19.9578 57.7643 20.2098C57.7643 20.6898 57.6503 21.0618 57.4223 21.3258C56.8703 21.9618 56.3003 22.4838 55.7123 22.8918C55.1363 23.2998 54.4763 23.5038 53.7323 23.5038C53.1203 23.5038 52.6583 23.3298 52.3463 22.9818C52.0343 22.6218 51.8783 22.1058 51.8783 21.4338C51.8783 21.0978 51.9623 20.4978 52.1303 19.6338C52.2863 18.8778 52.3643 18.3558 52.3643 18.0678C52.3643 17.8758 52.2983 17.7798 52.1663 17.7798C52.0103 17.7798 51.7883 17.9838 51.5003 18.3918C51.2123 18.7878 50.9243 19.3158 50.6363 19.9758C50.3483 20.6358 50.1143 21.3318 49.9343 22.0638C49.7063 23.0238 49.1423 23.5038 48.2423 23.5038C47.8823 23.5038 47.6423 23.3778 47.5223 23.1258C47.4143 22.8618 47.3603 22.3938 47.3603 21.7218C47.3603 21.3378 47.3663 21.0318 47.3783 20.8038L47.3963 19.3638C47.3963 17.5158 47.5823 15.5898 47.9543 13.5858C48.3383 11.5818 48.8963 9.90182 49.6283 8.54582C50.3723 7.17782 51.2603 6.49382 52.2923 6.49382C52.8443 6.49382 53.2883 6.73382 53.6243 7.21382C53.9723 7.68182 54.1463 8.29382 54.1463 9.04982C54.1463 10.2618 53.7923 11.5218 53.0843 12.8298C52.3763 14.1258 51.2243 15.6438 49.6283 17.3838C49.5923 18.0078 49.5743 18.6498 49.5743 19.3098C49.9703 18.2898 50.4083 17.4618 50.8883 16.8258C51.3803 16.1778 51.8603 15.7158 52.3283 15.4398C52.8083 15.1638 53.2463 15.0258 53.6423 15.0258C54.4223 15.0258 54.8123 15.4158 54.8123 16.1958C54.8123 16.6638 54.6803 17.5098 54.4163 18.7338C54.1883 19.7778 54.0743 20.4678 54.0743 20.8038C54.0743 21.2838 54.2483 21.5238 54.5963 21.5238C54.8363 21.5238 55.1183 21.3798 55.4423 21.0918C55.7783 20.7918 56.2223 20.3118 56.7743 19.6518C56.9183 19.4838 57.0803 19.3998 57.2603 19.3998ZM51.9143 8.27582C51.6983 8.27582 51.4583 8.58782 51.1943 9.21182C50.9303 9.82382 50.6723 10.6578 50.4203 11.7138C50.1803 12.7578 49.9823 13.8978 49.8263 15.1338C50.5703 14.2578 51.1823 13.3038 51.6623 12.2718C52.1543 11.2398 52.4003 10.3038 52.4003 9.46382C52.4003 9.07982 52.3583 8.78582 52.2743 8.58182C52.1903 8.37782 52.0703 8.27582 51.9143 8.27582ZM58.5194 23.5038C57.7754 23.5038 57.1814 23.2338 56.7374 22.6938C56.2934 22.1538 56.0714 21.4458 56.0714 20.5698C56.0714 19.6098 56.2934 18.7038 56.7374 17.8518C57.1814 16.9878 57.7694 16.2978 58.5014 15.7818C59.2454 15.2538 60.0314 14.9898 60.8594 14.9898C61.1234 14.9898 61.2974 15.0438 61.3814 15.1518C61.4774 15.2478 61.5554 15.4278 61.6154 15.6918C61.8674 15.6438 62.1314 15.6198 62.4074 15.6198C62.9954 15.6198 63.2894 15.8298 63.2894 16.2498C63.2894 16.5018 63.1994 17.1018 63.0194 18.0498C62.7434 19.4298 62.6054 20.3898 62.6054 20.9298C62.6054 21.1098 62.6474 21.2538 62.7314 21.3618C62.8274 21.4698 62.9474 21.5238 63.0914 21.5238C63.3194 21.5238 63.5954 21.3798 63.9194 21.0918C64.2434 20.7918 64.6814 20.3118 65.2334 19.6518C65.3774 19.4838 65.5394 19.3998 65.7194 19.3998C65.8754 19.3998 65.9954 19.4718 66.0794 19.6158C66.1754 19.7598 66.2234 19.9578 66.2234 20.2098C66.2234 20.6898 66.1094 21.0618 65.8814 21.3258C65.3894 21.9378 64.8674 22.4538 64.3154 22.8738C63.7634 23.2938 63.2294 23.5038 62.7134 23.5038C62.3174 23.5038 61.9514 23.3718 61.6154 23.1078C61.2914 22.8318 61.0454 22.4598 60.8774 21.9918C60.2534 22.9998 59.4674 23.5038 58.5194 23.5038ZM59.1674 21.6858C59.4314 21.6858 59.6834 21.5298 59.9234 21.2178C60.1634 20.9058 60.3374 20.4918 60.4454 19.9758L61.1114 16.6638C60.6074 16.6758 60.1394 16.8678 59.7074 17.2398C59.2874 17.5998 58.9514 18.0798 58.6994 18.6798C58.4474 19.2798 58.3214 19.9158 58.3214 20.5878C58.3214 20.9598 58.3934 21.2358 58.5374 21.4158C58.6934 21.5958 58.9034 21.6858 59.1674 21.6858ZM67.7305 16.7358C67.7065 17.3358 67.6945 17.8038 67.6945 18.1398C67.6945 19.0038 67.7365 19.6818 67.8205 20.1738C67.9165 20.6538 68.0665 21.0018 68.2705 21.2178C68.4865 21.4218 68.7805 21.5238 69.1525 21.5238C69.3445 21.5238 69.5725 21.4638 69.8365 21.3438C70.1005 21.2238 70.3405 21.0678 70.5565 20.8758C70.6885 20.7558 70.8205 20.6958 70.9525 20.6958C71.0965 20.6958 71.2105 20.7798 71.2945 20.9478C71.3905 21.1038 71.4385 21.2958 71.4385 21.5238C71.4385 21.7518 71.3905 21.9738 71.2945 22.1898C71.2105 22.4058 71.0785 22.5858 70.8985 22.7298C70.2745 23.2458 69.5665 23.5038 68.7745 23.5038C67.6345 23.5038 66.8005 23.0298 66.2725 22.0818C65.7445 21.1218 65.4805 19.8738 65.4805 18.3378C65.4805 17.8098 65.4985 17.2758 65.5345 16.7358H64.8325C64.4725 16.7358 64.2265 16.6698 64.0945 16.5378C63.9745 16.4058 63.9145 16.1958 63.9145 15.9078C63.9145 15.2358 64.1845 14.8998 64.7245 14.8998H65.7505C65.9545 13.5798 66.2665 12.3738 66.6865 11.2818C67.1065 10.1898 67.6105 9.31982 68.1985 8.67182C68.7985 8.02382 69.4405 7.69982 70.1245 7.69982C70.6285 7.69982 71.0245 7.92182 71.3125 8.36582C71.6005 8.80982 71.7445 9.36782 71.7445 10.0398C71.7445 11.8998 70.9645 13.5198 69.4045 14.8998H71.4205C71.6125 14.8998 71.7505 14.9418 71.8345 15.0258C71.9185 15.1098 71.9605 15.2658 71.9605 15.4938C71.9605 16.3218 71.2825 16.7358 69.9265 16.7358H67.7305ZM69.6385 9.42782C69.4585 9.42782 69.2545 9.65582 69.0265 10.1118C68.8105 10.5558 68.6005 11.1798 68.3965 11.9838C68.2045 12.7758 68.0425 13.6578 67.9105 14.6298C68.6185 14.0178 69.1465 13.3338 69.4945 12.5778C69.8545 11.8098 70.0345 11.1138 70.0345 10.4898C70.0345 9.78182 69.9025 9.42782 69.6385 9.42782ZM93.6277 19.3998C93.7837 19.3998 93.9037 19.4718 93.9877 19.6158C94.0837 19.7598 94.1317 19.9578 94.1317 20.2098C94.1317 20.6778 94.0177 21.0498 93.7897 21.3258C92.6017 22.7778 91.3357 23.5038 89.9917 23.5038C88.8277 23.5038 87.8977 23.0538 87.2017 22.1538C86.5057 21.2538 86.1577 19.9638 86.1577 18.2838C86.1577 17.8758 86.1757 17.4678 86.2117 17.0598C85.4197 17.2038 84.5557 17.3118 83.6197 17.3838C82.9957 17.4318 82.5697 17.4618 82.3417 17.4738C82.1017 18.6978 81.7657 20.1978 81.3337 21.9738C81.0817 23.0178 80.6017 23.5398 79.8937 23.5398C79.1257 23.5398 78.7417 23.1918 78.7417 22.4958C78.7417 22.3398 78.7717 22.1238 78.8317 21.8478C79.2397 20.2038 79.5637 18.8118 79.8037 17.6718L78.9397 17.7078C78.5437 17.7078 78.2557 17.6418 78.0757 17.5098C77.8957 17.3658 77.8057 17.1378 77.8057 16.8258C77.8057 16.4298 77.9197 16.1418 78.1477 15.9618C78.3757 15.7698 78.7537 15.6618 79.2817 15.6378L80.2357 15.6018C80.5477 13.9098 80.7037 12.6198 80.7037 11.7318C80.7037 11.1678 80.6197 10.7838 80.4517 10.5798C80.2837 10.3758 80.0617 10.2738 79.7857 10.2738C78.9457 10.2738 77.9977 10.9758 76.9417 12.3798C76.7857 12.5838 76.6117 12.6858 76.4197 12.6858C76.2517 12.6858 76.1077 12.6078 75.9877 12.4518C75.8677 12.2958 75.8077 12.0978 75.8077 11.8578C75.8077 11.4858 75.9577 11.0898 76.2577 10.6698C76.7857 9.93782 77.4517 9.33782 78.2557 8.86982C79.0597 8.38982 79.8757 8.14982 80.7037 8.14982C81.4837 8.14982 82.0837 8.41982 82.5037 8.95982C82.9357 9.48782 83.1517 10.3158 83.1517 11.4438C83.1517 12.4398 83.0077 13.7898 82.7197 15.4938L84.4837 15.4038C85.2397 15.3678 85.8877 15.3078 86.4277 15.2238C86.6437 13.9038 86.9737 12.6678 87.4177 11.5158C87.8617 10.3638 88.4137 9.42782 89.0737 8.70782C89.7337 7.98782 90.4717 7.62782 91.2877 7.62782C91.8877 7.62782 92.3617 7.86782 92.7097 8.34782C93.0577 8.81582 93.2317 9.43382 93.2317 10.2018C93.2317 13.1778 91.7137 15.2418 88.6777 16.3938C88.6417 16.8738 88.6237 17.3718 88.6237 17.8878C88.6237 19.1478 88.7797 20.0418 89.0917 20.5698C89.4037 21.0978 89.8417 21.3618 90.4057 21.3618C90.8977 21.3618 91.3477 21.2358 91.7557 20.9838C92.1637 20.7198 92.6257 20.2758 93.1417 19.6518C93.2857 19.4838 93.4477 19.3998 93.6277 19.3998ZM91.1977 9.19382C90.9337 9.19382 90.6517 9.43382 90.3517 9.91382C90.0637 10.3938 89.7877 11.0478 89.5237 11.8758C89.2597 12.7038 89.0497 13.6098 88.8937 14.5938C89.8537 14.1978 90.5617 13.6338 91.0177 12.9018C91.4737 12.1698 91.7017 11.2278 91.7017 10.0758C91.7017 9.79982 91.6537 9.58382 91.5577 9.42782C91.4617 9.27182 91.3417 9.19382 91.1977 9.19382ZM104.192 17.8878C104.348 17.8878 104.468 17.9658 104.552 18.1218C104.636 18.2778 104.678 18.4758 104.678 18.7158C104.678 19.2918 104.504 19.6338 104.156 19.7418C103.436 19.9938 102.644 20.1378 101.78 20.1738C101.552 21.1818 101.102 21.9918 100.43 22.6038C99.7584 23.2038 98.9964 23.5038 98.1444 23.5038C97.4244 23.5038 96.8064 23.3298 96.2904 22.9818C95.7864 22.6338 95.4024 22.1718 95.1384 21.5958C94.8744 21.0198 94.7424 20.3958 94.7424 19.7238C94.7424 18.8118 94.9164 18.0018 95.2644 17.2938C95.6124 16.5738 96.0924 16.0158 96.7044 15.6198C97.3164 15.2118 97.9944 15.0078 98.7384 15.0078C99.6504 15.0078 100.382 15.3258 100.934 15.9618C101.498 16.5858 101.828 17.3598 101.924 18.2838C102.488 18.2478 103.16 18.1278 103.94 17.9238C104.036 17.8998 104.12 17.8878 104.192 17.8878ZM98.2884 21.5958C98.6724 21.5958 99.0024 21.4398 99.2784 21.1278C99.5664 20.8158 99.7584 20.3658 99.8544 19.7778C99.4824 19.5258 99.1944 19.1958 98.9904 18.7878C98.7984 18.3798 98.7024 17.9478 98.7024 17.4918C98.7024 17.2998 98.7204 17.1078 98.7564 16.9158H98.6664C98.1864 16.9158 97.7844 17.1498 97.4604 17.6178C97.1484 18.0738 96.9924 18.7218 96.9924 19.5618C96.9924 20.2218 97.1184 20.7258 97.3704 21.0738C97.6344 21.4218 97.9404 21.5958 98.2884 21.5958ZM104.412 23.5038C103.956 23.5038 103.632 23.2638 103.44 22.7838C103.26 22.3038 103.17 21.5358 103.17 20.4798C103.17 18.9198 103.392 17.4378 103.836 16.0338C103.944 15.6858 104.118 15.4338 104.358 15.2778C104.61 15.1098 104.958 15.0258 105.402 15.0258C105.642 15.0258 105.81 15.0558 105.906 15.1158C106.002 15.1758 106.05 15.2898 106.05 15.4578C106.05 15.6498 105.96 16.0818 105.78 16.7538C105.66 17.2338 105.564 17.6538 105.492 18.0138C105.42 18.3618 105.36 18.7998 105.312 19.3278C105.636 18.3918 106.02 17.5998 106.464 16.9518C106.92 16.3038 107.382 15.8238 107.85 15.5118C108.33 15.1878 108.78 15.0258 109.2 15.0258C109.62 15.0258 109.914 15.1218 110.082 15.3138C110.262 15.5058 110.352 15.7998 110.352 16.1958C110.352 16.5798 110.238 17.2758 110.01 18.2838C109.914 18.7158 109.848 19.0398 109.812 19.2558C110.412 17.7798 111.078 16.7058 111.81 16.0338C112.542 15.3618 113.226 15.0258 113.862 15.0258C114.642 15.0258 115.032 15.4158 115.032 16.1958C115.032 16.6638 114.9 17.5098 114.636 18.7338C114.408 19.7778 114.294 20.4678 114.294 20.8038C114.294 21.2838 114.468 21.5238 114.816 21.5238C115.056 21.5238 115.338 21.3798 115.662 21.0918C115.998 20.7918 116.442 20.3118 116.994 19.6518C117.138 19.4838 117.3 19.3998 117.48 19.3998C117.636 19.3998 117.756 19.4718 117.84 19.6158C117.936 19.7598 117.984 19.9578 117.984 20.2098C117.984 20.6898 117.87 21.0618 117.642 21.3258C117.126 21.9618 116.568 22.4838 115.968 22.8918C115.38 23.2998 114.708 23.5038 113.952 23.5038C113.34 23.5038 112.878 23.3298 112.566 22.9818C112.254 22.6218 112.098 22.1058 112.098 21.4338C112.098 21.0978 112.182 20.4978 112.35 19.6338C112.506 18.8778 112.584 18.3558 112.584 18.0678C112.584 17.8758 112.518 17.7798 112.386 17.7798C112.23 17.7798 112.008 17.9838 111.72 18.3918C111.432 18.7878 111.144 19.3158 110.856 19.9758C110.568 20.6358 110.334 21.3318 110.154 22.0638C110.022 22.6398 109.866 23.0238 109.686 23.2158C109.518 23.4078 109.242 23.5038 108.858 23.5038C108.462 23.5038 108.162 23.3178 107.958 22.9458C107.766 22.5618 107.67 22.0998 107.67 21.5598C107.67 21.1038 107.73 20.4438 107.85 19.5798C107.946 18.8118 107.994 18.3078 107.994 18.0678C107.994 17.8758 107.928 17.7798 107.796 17.7798C107.616 17.7798 107.388 17.9958 107.112 18.4278C106.836 18.8598 106.566 19.4118 106.302 20.0838C106.05 20.7558 105.846 21.4158 105.69 22.0638C105.558 22.6278 105.402 23.0118 105.222 23.2158C105.054 23.4078 104.784 23.5038 104.412 23.5038ZM122.972 19.9398C123.128 19.9398 123.248 20.0118 123.332 20.1558C123.428 20.2998 123.476 20.4978 123.476 20.7498C123.476 21.1818 123.374 21.5538 123.17 21.8658C122.834 22.3818 122.39 22.7838 121.838 23.0718C121.298 23.3598 120.65 23.5038 119.894 23.5038C118.742 23.5038 117.848 23.1618 117.212 22.4778C116.576 21.7818 116.258 20.8458 116.258 19.6698C116.258 18.8418 116.432 18.0738 116.78 17.3658C117.128 16.6458 117.608 16.0758 118.22 15.6558C118.844 15.2358 119.546 15.0258 120.326 15.0258C121.022 15.0258 121.58 15.2358 122 15.6558C122.42 16.0638 122.63 16.6218 122.63 17.3298C122.63 18.1578 122.33 18.8718 121.73 19.4718C121.142 20.0598 120.134 20.5278 118.706 20.8758C118.994 21.4278 119.48 21.7038 120.164 21.7038C120.656 21.7038 121.058 21.5898 121.37 21.3618C121.694 21.1338 122.066 20.7498 122.486 20.2098C122.63 20.0298 122.792 19.9398 122.972 19.9398ZM120.02 16.7898C119.576 16.7898 119.198 17.0478 118.886 17.5638C118.586 18.0798 118.436 18.7038 118.436 19.4358V19.4718C119.144 19.3038 119.702 19.0518 120.11 18.7158C120.518 18.3798 120.722 17.9898 120.722 17.5458C120.722 17.3178 120.656 17.1378 120.524 17.0058C120.404 16.8618 120.236 16.7898 120.02 16.7898Z" fill="#4FD1C5"/>
<path d="M129.112 8.63034L129 8.79344L128.888 8.63034C128.68 8.32568 128.399 8.15485 128.107 8.15485C127.814 8.15485 127.534 8.32568 127.326 8.63034C127.222 8.77767 127.14 8.95441 127.084 9.14996C127.028 9.3455 126.999 9.55583 126.999 9.76835C126.999 9.98087 127.028 10.1912 127.084 10.3868C127.14 10.5823 127.222 10.759 127.326 10.9064L129 13.3448L130.675 10.9064C130.778 10.759 130.86 10.5823 130.916 10.3868C130.972 10.1912 131.001 9.98087 131.001 9.76835C131.001 9.55583 130.972 9.3455 130.916 9.14996C130.86 8.95441 130.778 8.77767 130.675 8.63034C130.466 8.32563 130.186 8.15479 129.893 8.15479C129.601 8.15479 129.32 8.32563 129.112 8.63034Z" fill="#4FD1C5"/>
<path d="M133.853 8.37245L129.353 1.70004C129.307 1.63113 129.252 1.57646 129.191 1.53916C129.131 1.50186 129.066 1.48267 129 1.48267C128.934 1.48267 128.869 1.50186 128.809 1.53916C128.748 1.57646 128.693 1.63113 128.646 1.70004L124.146 8.37245C124.076 8.47614 124.029 8.60822 124.01 8.75202C123.99 8.89581 124 9.04485 124.038 9.1803C124.076 9.31575 124.14 9.43153 124.222 9.51299C124.304 9.59446 124.401 9.63796 124.5 9.63799H125V14.8276C125 15.6454 125.448 16.3104 126 16.3104H132C132.551 16.3104 133 15.6454 133 14.8276V9.63799H133.5C133.599 9.63796 133.695 9.59446 133.778 9.51299C133.86 9.43153 133.924 9.31575 133.962 9.1803C134 9.04485 134.009 8.89581 133.99 8.75202C133.971 8.60822 133.923 8.47614 133.853 8.37245ZM132 14.8276H126V7.72152L129 3.27325L132 7.72152V11.1207L132 14.8276Z" fill="#4FD1C5"/>
</svg>
