<svg width="18" height="18" viewBox="0 0 18 18" fill="none" xmlns="http://www.w3.org/2000/svg">
<path d="M16.6875 2.8125H2.0625C1.75137 2.8125 1.5 3.06387 1.5 3.375V14.625C1.5 14.9361 1.75137 15.1875 2.0625 15.1875H16.6875C16.9986 15.1875 17.25 14.9361 17.25 14.625V3.375C17.25 3.06387 16.9986 2.8125 16.6875 2.8125ZM15.2672 4.72676L9.72129 9.04219C9.58418 9.14941 9.39258 9.14941 9.25547 9.04219L3.70781 4.72676C3.6869 4.71062 3.67156 4.68834 3.66395 4.66305C3.65633 4.63775 3.65682 4.61071 3.66535 4.58571C3.67388 4.5607 3.69002 4.539 3.7115 4.52363C3.73298 4.50826 3.75874 4.5 3.78516 4.5H15.1898C15.2163 4.5 15.242 4.50826 15.2635 4.52363C15.285 4.539 15.3011 4.5607 15.3097 4.58571C15.3182 4.61071 15.3187 4.63775 15.3111 4.66305C15.3034 4.68834 15.2881 4.71062 15.2672 4.72676Z" fill="#38B2AC"/>
</svg>
