<svg width="14" height="14" viewBox="0 0 14 14" fill="none" xmlns="http://www.w3.org/2000/svg">
<path d="M8.90469 5.4C10.2047 5.4 11.0047 3.5 11.0047 2.3C11.0047 1.3 10.5047 0.0999999 9.50469 0.0999999C8.20469 0.0999999 7.40469 2 7.40469 3.2C7.40469 4.2 7.90469 5.4 8.90469 5.4ZM5.10469 5.4C6.10469 5.4 6.60469 4.2 6.60469 3.2C6.60469 1.9 5.80469 0 4.50469 0C3.50469 0 3.00469 1.2 3.00469 2.2C2.90469 3.5 3.70469 5.4 5.10469 5.4ZM12.5047 4.4C11.2047 4.4 10.3047 6.2 10.3047 7.5C10.3047 8.4 10.7047 9.3 11.6047 9.3C12.9047 9.3 13.8047 7.5 13.8047 6.2C13.8047 5.3 13.3047 4.4 12.5047 4.4ZM3.80469 7.5C3.80469 6.2 2.80469 4.4 1.60469 4.4C0.704687 4.4 0.304688 5.3 0.304688 6.2C0.304688 7.5 1.30469 9.3 2.50469 9.3C3.40469 9.3 3.80469 8.4 3.80469 7.5ZM7.00469 7.3C5.00469 7.3 2.30469 10.5 2.30469 12.7C2.30469 13.7 3.00469 14 3.80469 14C5.00469 14 5.90469 13.2 7.00469 13.2C8.00469 13.2 8.90469 14 10.0047 14C10.8047 14 11.7047 13.8 11.7047 12.7C11.7047 10.5 9.00469 7.3 7.00469 7.3Z" fill="#805AD5"/>
</svg>
