<svg width="80" height="80" viewBox="0 0 80 80" fill="none" xmlns="http://www.w3.org/2000/svg">
<path d="M39.9999 4.44434C32.9677 4.44434 26.0934 6.52963 20.2463 10.4365C14.3992 14.3434 9.84197 19.8964 7.15086 26.3934C4.45974 32.8903 3.75562 40.0393 5.12754 46.9364C6.49946 53.8335 9.8858 60.1689 14.8583 65.1415C19.8309 70.114 26.1663 73.5003 33.0634 74.8723C39.9605 76.2442 47.1095 75.5401 53.6064 72.8489C60.1034 70.1578 65.6564 65.6006 69.5633 59.7535C73.4702 53.9064 75.5555 47.0321 75.5555 39.9999C75.5555 30.57 71.8094 21.5263 65.1415 14.8583C58.4735 8.19036 49.4298 4.44434 39.9999 4.44434ZM63.2221 28.0666L34.0221 57.2443L16.7777 39.9999C16.1883 39.4105 15.8572 38.6112 15.8572 37.7777C15.8572 36.9442 16.1883 36.1448 16.7777 35.5554C17.3671 34.9661 18.1664 34.635 18.9999 34.635C19.8334 34.635 20.6328 34.9661 21.2221 35.5554L34.0666 48.3999L58.8221 23.6666C59.114 23.3747 59.4604 23.1432 59.8417 22.9853C60.223 22.8274 60.6316 22.7461 61.0444 22.7461C61.4571 22.7461 61.8657 22.8274 62.247 22.9853C62.6283 23.1432 62.9748 23.3747 63.2666 23.6666C63.5584 23.9584 63.7899 24.3048 63.9478 24.6861C64.1058 25.0674 64.1871 25.4761 64.1871 25.8888C64.1871 26.3015 64.1058 26.7101 63.9478 27.0914C63.7899 27.4727 63.5584 27.8192 63.2666 28.111L63.2221 28.0666Z" fill="#4FD1C5"/>
</svg>
